<?xml version="1.0" encoding="UTF-8" standalone="no"?>
<!-- Created with Inkscape (http://www.inkscape.org/) -->

<svg
   xmlns:dc="http://purl.org/dc/elements/1.1/"
   xmlns:cc="http://creativecommons.org/ns#"
   xmlns:rdf="http://www.w3.org/1999/02/22-rdf-syntax-ns#"
   xmlns:svg="http://www.w3.org/2000/svg"
   xmlns="http://www.w3.org/2000/svg"
   xmlns:sodipodi="http://sodipodi.sourceforge.net/DTD/sodipodi-0.dtd"
   xmlns:inkscape="http://www.inkscape.org/namespaces/inkscape"
   width="210"
   height="246"
   viewBox="0 0 55.562497 65.087502"
   version="1.1"
   id="svg8"
   inkscape:version="0.92.4 (5da689c313, 2019-01-14)"
   sodipodi:docname="mesh_network_diagram.svg">
  <defs
     id="defs2" />
  <sodipodi:namedview
     id="base"
     pagecolor="#ffffff"
     bordercolor="#666666"
     borderopacity="1.0"
     inkscape:pageopacity="0.0"
     inkscape:pageshadow="2"
     inkscape:zoom="0.98994949"
     inkscape:cx="269.10152"
     inkscape:cy="286.65209"
     inkscape:document-units="px"
     inkscape:current-layer="layer1"
     showgrid="true"
     units="px"
     inkscape:window-width="1440"
     inkscape:window-height="878"
     inkscape:window-x="-8"
     inkscape:window-y="-8"
     inkscape:window-maximized="1">
    <inkscape:grid
       type="xygrid"
       id="grid13" />
  </sodipodi:namedview>
  <metadata
     id="metadata5">
    <rdf:RDF>
      <cc:Work
         rdf:about="">
        <dc:format>image/svg+xml</dc:format>
        <dc:type
           rdf:resource="http://purl.org/dc/dcmitype/StillImage" />
        <dc:title></dc:title>
      </cc:Work>
    </rdf:RDF>
  </metadata>
  <g
     inkscape:label="Layer 1"
     inkscape:groupmode="layer"
     id="layer1"
     transform="translate(0,-231.91249)">
    <path
       style="fill:#ff8080;stroke-width:0.17859809"
       d="m 28.575697,232.1626 a 8.036915,8.036915 0 0 0 -8.036915,8.03691 8.036915,8.036915 0 0 0 0.532656,2.85059 l -8.116101,4.19323 A 8.036915,8.036915 0 0 0 8.036915,245.55745 8.036915,8.036915 0 0 0 0,253.59437 a 8.036915,8.036915 0 0 0 7.143924,7.97727 v 8.15028 A 8.036915,8.036915 0 0 0 0,277.70511 a 8.036915,8.036915 0 0 0 8.036915,8.03692 8.036915,8.036915 0 0 0 5.768855,-2.44177 l 6.917893,3.99404 a 8.036915,8.036915 0 0 0 -0.184881,1.66878 8.036915,8.036915 0 0 0 8.036915,8.03691 8.036915,8.036915 0 0 0 8.036912,-8.03691 8.036915,8.036915 0 0 0 -0.21836,-1.82471 l 5.738863,-3.31313 a 8.036915,8.036915 0 0 0 5.195386,1.91679 8.036915,8.036915 0 0 0 8.036917,-8.03692 8.036915,8.036915 0 0 0 -7.143922,-7.97726 v -8.14715 c 4.018237,-0.44436 7.143922,-3.84962 7.143922,-7.98633 0,-4.43866 -3.59825,-8.03692 -8.036917,-8.03692 -1.363065,0 -2.6461,0.3406 -3.77079,0.93939 l -7.353571,-3.79974 a 8.036915,8.036915 0 0 0 0.408472,-2.49759 8.036915,8.036915 0 0 0 -8.036912,-8.03691 z m 0,2.13654 a 5.9001155,5.9001155 0 0 1 5.900012,5.90037 5.9001155,5.9001155 0 0 1 -5.900012,5.90002 5.9001155,5.9001155 0 0 1 -5.900015,-5.90002 5.9001155,5.9001155 0 0 1 5.900015,-5.90037 z m 6.841844,10.10476 6.424995,3.3194 c -1.364592,1.27563 -2.283883,3.02044 -2.500375,4.97808 h -2.819892 l -2.952452,-6.21535 a 8.036915,8.036915 0 0 0 1.847724,-2.08213 z m -13.486598,0.31498 a 8.036915,8.036915 0 0 0 2.033993,2.05179 l -3.298832,5.93071 h -4.645997 a 8.036915,8.036915 0 0 0 -1.669822,-4.06555 z m 10.307766,2.6256 2.54502,5.3569 h -5.31504 v -4.51867 a 8.036915,8.036915 0 0 0 2.77002,-0.83823 z m -6.940561,0.18209 a 8.036915,8.036915 0 0 0 2.384565,0.65021 v 4.5246 h -5.262721 z m -17.261233,0.16744 a 5.9001155,5.9001155 0 0 1 5.900017,5.90036 5.9001155,5.9001155 0 0 1 -5.900017,5.90002 5.9001155,5.9001155 0 0 1 -5.900017,-5.90002 5.9001155,5.9001155 0 0 1 5.900017,-5.90036 z m 39.291583,3.4e-4 c 3.258467,5e-5 5.899962,2.64156 5.900017,5.90002 1.35e-4,3.25861 -2.641415,5.90031 -5.900017,5.90037 -3.25874,1.4e-4 -5.900502,-2.64163 -5.900366,-5.90037 5.2e-5,-3.2586 2.641766,-5.90015 5.900366,-5.90002 z m -31.314317,6.79301 h 3.658474 l -1.687264,3.03338 -2.344805,-1.35413 a 8.036915,8.036915 0 0 0 0.373595,-1.67925 z m 5.412362,0 h 6.25617 v 8.63201 l -8.3697,-4.83227 z m 8.042146,0 h 6.16338 l 1.860628,3.91626 -8.024008,4.63273 z m 7.901916,0 h 1.971556 c 0.09599,0.86796 0.330632,1.69359 0.680559,2.45572 l -1.165771,0.67289 z m -22.487664,3.30442 2.234223,1.28994 -2.505607,4.50508 -1.9133,-3.45302 a 8.036915,8.036915 0 0 0 2.184684,-2.342 z m 26.060675,0.68194 c 0.645904,0.8439 1.455492,1.55502 2.381077,2.08807 l -1.627269,3.03338 -2.071667,-4.36065 z m -22.498823,1.37438 8.273072,4.77645 -8.736659,5.04435 -2.494449,-4.50228 z m 19.816716,0.17406 2.513975,5.29166 -2.197243,4.0959 -8.28842,-4.78517 z m -26.918091,0.88915 2.373405,4.28391 -2.787805,5.01261 a 8.036915,8.036915 0 0 0 -1.999115,-0.47998 v -8.15028 a 8.036915,8.036915 0 0 0 2.413515,-0.66626 z m 33.43134,0.30313 c 0.53125,0.17799 1.08652,0.30276 1.660755,0.36626 v 8.14122 a 8.036915,8.036915 0 0 0 -1.652735,0.36766 l -2.239802,-4.71471 z m -17.092045,4.91529 v 10.6824 h -5.744095 l -3.091981,-5.58085 z m 1.785976,0.083 8.265044,4.77157 -3.12616,5.82781 h -5.138884 z m -14.876316,0.5623 2.035742,3.67487 -2.847807,1.64436 a 8.036915,8.036915 0 0 0 -1.480412,-1.19752 z m 27.028659,0.31882 1.727376,3.63615 a 8.036915,8.036915 0 0 0 -1.133676,0.77962 l -2.261775,-1.30599 z m -2.512931,4.68437 1.833767,1.05868 a 8.036915,8.036915 0 0 0 -1.590635,3.97521 h -2.94338 z m -31.071186,0.0265 a 5.9001155,5.9001155 0 0 1 5.900017,5.90036 5.9001155,5.9001155 0 0 1 -5.900017,5.90002 5.9001155,5.9001155 0 0 1 -5.900017,-5.90002 5.9001155,5.9001155 0 0 1 5.900017,-5.90036 z m 39.291583,0 a 5.9001155,5.9001155 0 0 1 5.900017,5.90036 5.9001155,5.9001155 0 0 1 -5.900017,5.90002 5.9001155,5.9001155 0 0 1 -5.900014,-5.90002 5.9001155,5.9001155 0 0 1 5.900014,-5.90036 z m -29.834601,0.20755 2.659086,4.79982 h -4.132876 a 8.036915,8.036915 0 0 0 -1.134722,-3.29394 z m -1.479716,6.58581 h 5.128073 l 2.313052,4.17472 a 8.036915,8.036915 0 0 0 -2.153296,2.79304 l -6.400931,-3.69545 a 8.036915,8.036915 0 0 0 1.113102,-3.27231 z m 6.914052,0 h 4.75448 v 2.38177 a 8.036915,8.036915 0 0 0 -2.928034,0.91497 z m 6.540456,0 h 4.181012 l -1.661804,3.0979 a 8.036915,8.036915 0 0 0 -2.519208,-0.7102 z m 5.981296,0 h 3.895316 a 8.036915,8.036915 0 0 0 1.534831,3.88834 l -5.097019,2.94268 a 8.036915,8.036915 0 0 0 -2.431661,-2.91896 z m -6.874288,4.46495 a 5.9001155,5.9001155 0 0 1 5.900364,5.90001 5.9001155,5.9001155 0 0 1 -5.900364,5.90002 5.9001155,5.9001155 0 0 1 -5.900015,-5.90002 5.9001155,5.9001155 0 0 1 5.900015,-5.90001 z"
       id="path15"
       inkscape:connector-curvature="0" />
  </g>
</svg>
